<?xml version="1.0" encoding="utf-8"?>
<!-- Generator: Adobe Illustrator 19.0.0, SVG Export Plug-In . SVG Version: 6.00 Build 0)  -->
<svg version="1.1" id="Layer_1" xmlns="http://www.w3.org/2000/svg" xmlns:xlink="http://www.w3.org/1999/xlink" x="0px" y="0px"
	 viewBox="0 0 96 96" style="enable-background:new 0 0 96 96;" xml:space="preserve">
<style type="text/css">
	.st0{fill:#000000;}
</style>
<g id="XMLID_2_">
	<path id="XMLID_6_" class="st0" d="M68.3,32.4L57.5,43.2v30.6c0,1.1-0.4,2.1-1.2,2.9c-0.8,0.8-1.8,1.2-2.9,1.2
		c-1.1,0-2.1-0.4-2.9-1.2c-0.8-0.8-1.2-1.8-1.2-2.9V59.6h-2.4v14.3c0,1.1-0.4,2.1-1.2,2.9c-0.8,0.8-1.8,1.2-2.9,1.2
		s-2.1-0.4-2.9-1.2c-0.8-0.8-1.2-1.8-1.2-2.9V43.2L27.7,32.4c-0.7-0.7-1-1.5-1-2.5c0-1,0.3-1.8,1-2.5s1.5-1,2.5-1c1,0,1.8,0.3,2.5,1
		l8.5,8.5h13.7l8.5-8.5c0.7-0.7,1.5-1,2.5-1s1.8,0.3,2.5,1s1,1.5,1,2.5C69.4,30.9,69,31.7,68.3,32.4z M56.3,26.3
		c0,2.3-0.8,4.3-2.4,5.9c-1.6,1.6-3.6,2.4-5.9,2.4s-4.3-0.8-5.9-2.4c-1.6-1.6-2.4-3.6-2.4-5.9s0.8-4.3,2.4-5.9
		c1.6-1.6,3.6-2.4,5.9-2.4s4.3,0.8,5.9,2.4C55.5,22.1,56.3,24,56.3,26.3z"/>
</g>
</svg>
