<?xml version="1.0" standalone="no"?>
<!DOCTYPE svg PUBLIC "-//W3C//DTD SVG 20010904//EN"
 "http://www.w3.org/TR/2001/REC-SVG-20010904/DTD/svg10.dtd">
<svg version="1.0" xmlns="http://www.w3.org/2000/svg"
 width="70pt" height="60pt" viewBox="0 0 654.000000 600.000000"
 preserveAspectRatio="xMidYMid meet">
<metadata>
Created by potrace 1.15, written by Peter Selinger 2001-2017
</metadata>
<g transform="translate(0.000000,600.000000) scale(0.100000,-0.100000)"
fill="#000000" stroke="none">
<path d="M3135 5703 c-122 -44 -214 -127 -268 -241 -30 -63 -32 -73 -32 -182
0 -109 2 -119 32 -183 44 -93 119 -169 212 -215 73 -36 77 -37 191 -37 114 0
118 1 191 37 94 46 168 122 212 215 27 58 32 82 35 163 3 78 0 106 -18 159
-39 118 -123 210 -238 264 -59 28 -79 32 -167 34 -77 3 -112 -1 -150 -14z"/>
<path d="M2907 4679 c-201 -14 -367 -50 -484 -104 -92 -43 -138 -78 -168 -130
l-25 -42 0 -806 c0 -545 3 -815 11 -834 25 -68 97 -116 174 -116 56 0 85 12
128 52 65 59 62 26 65 696 l2 610 40 3 40 3 0 -1768 0 -1768 24 -50 c45 -98
127 -147 246 -148 65 -1 83 3 129 28 29 16 66 45 82 64 61 75 59 31 59 1098
l0 973 40 0 40 0 0 -967 c0 -628 4 -981 10 -1005 19 -68 70 -130 133 -162 48
-25 69 -29 130 -29 42 0 87 7 108 15 53 23 107 75 135 129 l24 48 0 1771 0
1770 45 0 45 0 0 -615 c0 -669 -2 -642 57 -696 43 -40 72 -52 128 -52 77 0
149 48 175 117 7 20 10 275 10 824 l0 796 -25 42 c-80 136 -325 227 -685 254
-153 11 -531 11 -693 -1z"/>
</g>
</svg>
